<svg xmlns="http://www.w3.org/2000/svg" width="44.967" height="31.862" viewBox="0 0 44.967 31.862">
  <g id="family" transform="translate(0)">
    <g id="Group_24" data-name="Group 24" transform="translate(38.417 17.865)">
      <g id="Group_23" data-name="Group 23">
        <path id="Path_20" data-name="Path 20" d="M439,278.361a.882.882,0,0,0-1.4,1.077,6.614,6.614,0,0,1,1.386,4.073.882.882,0,1,0,1.763,0A8.362,8.362,0,0,0,439,278.361Z" transform="translate(-437.419 -278.017)" fill="#fff"/>
      </g>
    </g>
    <g id="Group_26" data-name="Group 26" transform="translate(0 0)">
      <g id="Group_25" data-name="Group 25">
        <path id="Path_21" data-name="Path 21" d="M37.034,86.9a6.719,6.719,0,1,0-7.5,0A11.617,11.617,0,0,0,25.926,88.9a4.958,4.958,0,0,0-6.883,0A11.624,11.624,0,0,0,15.435,86.9a6.719,6.719,0,1,0-7.5,0A11.7,11.7,0,0,0,0,97.946c0,.008,0,.015,0,.023,0,1.354.769,3.351,4.434,5.182a33.773,33.773,0,0,0,10.377,2.835,60.666,60.666,0,0,0,15.346,0,33.77,33.77,0,0,0,10.377-2.835c3.664-1.83,4.434-3.828,4.434-5.182A11.7,11.7,0,0,0,37.034,86.9Zm-8.706-5.573a4.956,4.956,0,1,1,4.956,4.955A4.962,4.962,0,0,1,28.329,81.331Zm-8.476,9.316a3.2,3.2,0,0,1,5.262,0h0a3.2,3.2,0,1,1-5.263,0ZM6.727,81.331a4.956,4.956,0,1,1,4.955,4.955A4.961,4.961,0,0,1,6.727,81.331ZM14.045,104.1a30.592,30.592,0,0,1-8.823-2.523C3,100.462,1.771,99.186,1.764,97.979c0,0,0-.007,0-.01a9.919,9.919,0,0,1,16.241-7.643,4.964,4.964,0,0,0,1.31,5.969A8.452,8.452,0,0,0,14.045,104.1Zm15.115.236a59.169,59.169,0,0,1-13.352,0v-.217a6.676,6.676,0,0,1,13.352,0Zm10.586-2.759a30.584,30.584,0,0,1-8.822,2.523,8.452,8.452,0,0,0-5.271-7.8,4.963,4.963,0,0,0,1.31-5.969A9.919,9.919,0,0,1,43.2,97.969C43.2,99.179,41.976,100.459,39.746,101.573Z" transform="translate(0 -74.611)" fill="#fff"/>
      </g>
    </g>
    <g id="Group_28" data-name="Group 28" transform="translate(36.503 16.137)">
      <g id="Group_27" data-name="Group 27">
        <path id="Path_22" data-name="Path 22" d="M416.482,258.344a.882.882,0,0,0,0,1.763A.882.882,0,0,0,416.482,258.344Z" transform="translate(-415.63 -258.344)" fill="#fff"/>
      </g>
    </g>
  </g>
</svg>
